<svg width="14" height="14" viewBox="0 0 14 14" fill="none" xmlns="http://www.w3.org/2000/svg">
<circle cx="7" cy="7" r="7" fill="#FF2B77"/>
<path d="M4.29756 10.128C3.8389 10.128 3.43623 10.0053 3.08956 9.76C2.7429 9.50933 2.47356 9.168 2.28156 8.736C2.0949 8.29867 2.00156 7.808 2.00156 7.264C2.00156 6.72 2.0949 6.232 2.28156 5.8C2.47356 5.36267 2.7429 5.02133 3.08956 4.776C3.43623 4.52533 3.8389 4.4 4.29756 4.4C4.75623 4.4 5.1589 4.52533 5.50556 4.776C5.85223 5.02133 6.1189 5.36267 6.30556 5.8C6.49756 6.232 6.59356 6.72 6.59356 7.264C6.59356 7.808 6.49756 8.29867 6.30556 8.736C6.1189 9.168 5.85223 9.50933 5.50556 9.76C5.1589 10.0053 4.75623 10.128 4.29756 10.128ZM4.29756 9.144C4.55356 9.144 4.7749 9.064 4.96156 8.904C5.15356 8.73867 5.29756 8.51467 5.39356 8.232C5.4949 7.944 5.54556 7.62133 5.54556 7.264C5.54556 6.70933 5.43356 6.25867 5.20956 5.912C4.98556 5.56 4.68156 5.384 4.29756 5.384C3.9189 5.384 3.61756 5.56 3.39356 5.912C3.16956 6.264 3.05756 6.71467 3.05756 7.264C3.05756 7.62133 3.10556 7.944 3.20156 8.232C3.3029 8.51467 3.4469 8.73867 3.63356 8.904C3.82556 9.064 4.0469 9.144 4.29756 9.144ZM9.696 10.128C9.23733 10.128 8.83467 10.0053 8.488 9.76C8.14133 9.50933 7.872 9.168 7.68 8.736C7.49333 8.29867 7.4 7.808 7.4 7.264C7.4 6.72 7.49333 6.232 7.68 5.8C7.872 5.36267 8.14133 5.02133 8.488 4.776C8.83467 4.52533 9.23733 4.4 9.696 4.4C10.1547 4.4 10.5573 4.52533 10.904 4.776C11.2507 5.02133 11.5173 5.36267 11.704 5.8C11.896 6.232 11.992 6.72 11.992 7.264C11.992 7.808 11.896 8.29867 11.704 8.736C11.5173 9.168 11.2507 9.50933 10.904 9.76C10.5573 10.0053 10.1547 10.128 9.696 10.128ZM9.696 9.144C9.952 9.144 10.1733 9.064 10.36 8.904C10.552 8.73867 10.696 8.51467 10.792 8.232C10.8933 7.944 10.944 7.62133 10.944 7.264C10.944 6.70933 10.832 6.25867 10.608 5.912C10.384 5.56 10.08 5.384 9.696 5.384C9.31733 5.384 9.016 5.56 8.792 5.912C8.568 6.264 8.456 6.71467 8.456 7.264C8.456 7.62133 8.504 7.944 8.6 8.232C8.70133 8.51467 8.84533 8.73867 9.032 8.904C9.224 9.064 9.44533 9.144 9.696 9.144Z" fill="white"/>
</svg>
