<svg width="30" height="30" viewBox="0 0 30 30" fill="none" xmlns="http://www.w3.org/2000/svg">
<path d="M24.8502 11.25H21.0937L15.75 4.125C15.6626 4.00857 15.5494 3.91406 15.4192 3.84897C15.289 3.78389 15.1455 3.75 15 3.75C14.8544 3.75 14.7109 3.78389 14.5807 3.84897C14.4505 3.91406 14.3373 4.00857 14.25 4.125L8.90621 11.25H5.14976C4.64444 11.2492 4.15943 11.4489 3.80112 11.8052C3.44281 12.1616 3.24045 12.6455 3.23844 13.1508C3.23735 13.3294 3.26322 13.5072 3.31519 13.6781L6.02633 23.2371C6.20262 23.8601 6.57755 24.4085 7.09411 24.7989C7.61066 25.1893 8.24057 25.4003 8.88805 25.3998H21.1119C21.7594 25.3978 22.3889 25.1864 22.9064 24.7971C23.4239 24.4079 23.8015 23.8616 23.983 23.24L26.6976 13.6682C26.7101 13.6228 26.7192 13.5766 26.7246 13.5299L26.7556 13.241C26.7591 13.2109 26.7609 13.1805 26.7609 13.1502C26.7587 12.6451 26.5564 12.1614 26.1982 11.8052C25.8401 11.449 25.3553 11.2494 24.8502 11.25ZM15 6.2502L18.75 11.25H11.25L15 6.2502ZM15 20.6057C14.5635 20.6036 14.1375 20.4723 13.7756 20.2283C13.4137 19.9843 13.1322 19.6386 12.9667 19.2347C12.8011 18.8309 12.7588 18.3871 12.8453 17.9593C12.9317 17.5315 13.1429 17.1389 13.4522 16.831C13.7616 16.5231 14.1552 16.3138 14.5834 16.2294C15.0116 16.145 15.4552 16.1894 15.8583 16.3569C16.2613 16.5244 16.6057 16.8075 16.8479 17.1705C17.0902 17.5336 17.2195 17.9602 17.2195 18.3967C17.2162 18.9831 16.9809 19.5445 16.565 19.958C16.1491 20.3715 15.5864 20.6035 15 20.6033V20.6057Z" fill="white"/>
</svg>
